<svg width="42" height="42" viewBox="0 0 42 42" fill="none" xmlns="http://www.w3.org/2000/svg">
<path d="M20.4396 0.497829C20.5184 -0.165943 21.4816 -0.165943 21.5604 0.497829L22.2211 6.06628C23.0743 13.2566 28.7434 18.9257 35.9337 19.7789L41.5021 20.4396C42.166 20.5184 42.166 21.4816 41.5021 21.5604L35.9337 22.2211C28.7434 23.0743 23.0743 28.7434 22.2211 35.9337L21.5604 41.5021C21.4816 42.166 20.5184 42.166 20.4396 41.5021L19.7789 35.9337C18.9257 28.7434 13.2566 23.0743 6.06628 22.2211L0.497829 21.5604C-0.165943 21.4816 -0.165943 20.5184 0.497829 20.4396L6.06628 19.7789C13.2566 18.9257 18.9257 13.2566 19.7789 6.06628L20.4396 0.497829Z" fill="#F2994A"/>
</svg>
