<svg width="42" height="42" viewBox="0 0 42 42" fill="none" xmlns="http://www.w3.org/2000/svg">
<g filter="url(#filter0_d_465_4147)">
<path d="M21.5463 5.403C21.6101 4.86567 22.3899 4.86567 22.4537 5.403L22.9885 9.9108C23.6792 15.7316 28.2684 20.3208 34.0892 21.0115L38.5969 21.5463C39.1343 21.6101 39.1343 22.3899 38.5969 22.4537L34.0892 22.9885C28.2684 23.6792 23.6792 28.2684 22.9885 34.0892L22.4537 38.5969C22.3899 39.1343 21.6101 39.1343 21.5463 38.5969L21.0115 34.0892C20.3208 28.2684 15.7316 23.6792 9.9108 22.9885L5.403 22.4537C4.86567 22.3899 4.86567 21.6101 5.403 21.5463L9.9108 21.0115C15.7316 20.3208 20.3208 15.7316 21.0115 9.9108L21.5463 5.403Z" fill="#F2994A"/>
</g>
<defs>
<filter id="filter0_d_465_4147" x="0" y="0" width="42" height="42" filterUnits="userSpaceOnUse" color-interpolation-filters="sRGB">
<feFlood flood-opacity="0" result="BackgroundImageFix"/>
<feColorMatrix in="SourceAlpha" type="matrix" values="0 0 0 0 0 0 0 0 0 0 0 0 0 0 0 0 0 0 127 0" result="hardAlpha"/>
<feOffset dx="-1" dy="-1"/>
<feGaussianBlur stdDeviation="2"/>
<feComposite in2="hardAlpha" operator="out"/>
<feColorMatrix type="matrix" values="0 0 0 0 1 0 0 0 0 1 0 0 0 0 1 0 0 0 0.25 0"/>
<feBlend mode="normal" in2="BackgroundImageFix" result="effect1_dropShadow_465_4147"/>
<feBlend mode="normal" in="SourceGraphic" in2="effect1_dropShadow_465_4147" result="shape"/>
</filter>
</defs>
</svg>
